<svg xmlns="http://www.w3.org/2000/svg" viewBox="0 0 285 272">
  <path fill="#1E4B9A" d="M143.198 0C145.185 0.727344 148.815 4.60433 150.478 6.31229C163.018 19.2291 175.422 33.3929 183.935 49.297C191.352 63.149 191.904 71.7538 187.403 86.2617C191.8 83.3199 196.67 80.3 201.788 78.8973C226.063 72.2538 263.515 93.126 284.536 104.595C276.302 122.843 263.482 145.164 249.448 159.366C238.584 170.354 230.154 173.056 214.99 173.075C220.218 176.472 224.141 179.621 227.576 184.966C240.746 205.488 233.33 248.277 228.148 271.351C217.575 269.994 207.087 268.052 196.735 265.539C180.286 261.526 159.232 255.428 148.4 241.342C145.393 237.432 144.263 231.88 141.574 227.743C139.879 232.698 137.652 238.062 134.392 242.134C118.604 261.883 76.5386 266.13 52.7461 269.448C48.371 250.583 46.1123 223.528 48.8587 204.513C51.0738 189.174 55.947 182.128 68.0254 173.173C62.0417 172.939 55.0794 172.686 49.5522 170.374C27.7254 161.262 9.00218 122.324 0 101.283C17.1134 91.6648 41.3631 81.2871 60.6215 78.0855C74.9138 75.7022 84.7011 78.2609 96.286 86.7812C94.4638 80.6572 92.8331 75.3385 93.2825 68.7795C94.8852 45.3876 125.943 14.6962 143.198 0Z"/>
</svg>
